PathFileType	4	(X/Y/Z)	RBDS08\RBDS08runT45.trc
DataRate	CameraRate	NumFrames	NumMarkers	Units	OrigDataRate	OrigDataStartFrame	OrigNumFrames
150.000000	150.000000	4	33	mm	150.000000	2250	4500
Frame#	Time	L.ASIS			L.Heel.Bottom			L.Heel.Lateral			L.Heel.Top			L.Iliac.Crest			L.MT1			L.MT5			L.PSIS			L.Shank.Bottom.Lateral			L.Shank.Bottom.Medial			L.Shank.Top.Lateral			L.Shank.Top.Medial			L.Thigh.Bottom.Lateral			L.Thigh.Bottom.Medial			L.Thigh.Top.Lateral			L.Thigh.Top.Medial			R.ASIS			R.ASY			R.Heel.Bottom			R.Heel.Lateral			R.Heel.Top			R.Iliac.Crest			R.MT1			R.MT5			R.PSIS			R.Shank.Bottom.Lateral			R.Shank.Bottom.Medial			R.Shank.Top.Lateral			R.Shank.Top.Medial			R.Thigh.Bottom.Lateral			R.Thigh.Bottom.Medial			R.Thigh.Top.Lateral			R.Thigh.Top.Medial			
		X1	Y1	Z1	X2	Y2	Z2	X3	Y3	Z3	X4	Y4	Z4	X5	Y5	Z5	X6	Y6	Z6	X7	Y7	Z7	X8	Y8	Z8	X9	Y9	Z9	X10	Y10	Z10	X11	Y11	Z11	X12	Y12	Z12	X13	Y13	Z13	X14	Y14	Z14	X15	Y15	Z15	X16	Y16	Z16	X17	Y17	Z17	X18	Y18	Z18	X19	Y19	Z19	X20	Y20	Z20	X21	Y21	Z21	X22	Y22	Z22	X23	Y23	Z23	X24	Y24	Z24	X25	Y25	Z25	X26	Y26	Z26	X27	Y27	Z27	X28	Y28	Z28	X29	Y29	Z29	X30	Y30	Z30	X31	Y31	Z31	X32	Y32	Z32	X33	Y33	Z33	

2251	15	2158.781483211462	1021.881863359524	948.093558942071	2170.393461954705	212.1025391914499	994.277810641519	2200.955913458456	226.0270253139212	948.0403301039529	2193.945886149226	257.7997976188844	999.874268211822	2104.454784576814	1099.558226797281	895.4694527698939	2399.095498507403	180.8959002436452	1012.031325599105	2349.551329615821	180.1792694197364	911.074261920779	1992.634836797016	1069.347552067692	984.8867096073884	2270.422971858342	335.2110235508164	940.9278322348987	2237.683152827122	345.3764706685194	979.658765808946	2284.891164247756	414.0510385726324	928.3673940407483	2255.605698083052	427.5714784770663	971.0812017840266	2311.463894143923	770.6856733361963	887.9066294286762	2272.784099059732	714.6702591371974	913.3408434293092	2217.079818155897	827.0540992017362	872.3990838637143	2179.8623951099	773.665177019398	895.4625498686852	2138.599918754493	1002.441134521682	1164.285970662628	1000711608.210642	-892568110.9367632	-92895935.67995957	1434.057743178777	296.4023223142792	1022.543676796132	1439.720655068593	280.5341858113791	1071.408344030866	1477.989323776684	309.0258083555669	1042.152977901017	2118.207459180035	1084.425486930313	1177.856420661191	1548.096787853215	99.37099134099802	1044.185856296078	1484.797853310811	130.0649698703007	1126.149686083105	1987.139376693263	1070.572861025601	1086.973708473894	1541.608394220012	342.688432521118	1117.889468975995	1537.631517977716	356.3887657346897	1065.117431377712	1578.240231157021	414.2356556067955	1131.9379562779	1577.09669431289	424.6805634368054	1079.432246648403	1841.386702272021	686.9292312388918	1199.369602823024	1799.950133021371	714.4449881153502	1146.544205311331	1888.40727193688	786.1728672967356	1212.254330273847	1850.686639953582	811.1529564851181	1160.612832799442	
2252	15.00666666666667	2158.257920119298	1023.027148495435	947.5856569181439	2195.084451893179	194.0933726198322	994.0971777882274	2224.917073333485	209.606539114107	947.8535783591806	2215.522361952239	241.2467177359866	999.2968664454881	2104.226070479689	1100.978414456589	894.4576913488753	2425.064813281605	178.4731473633924	1013.326412789513	2376.386788559168	173.4991690333433	912.1784117523931	1993.650914267608	1071.023468554724	984.4786273781522	2287.252152862992	323.2671927243796	940.093084728142	2253.868600395368	331.6976786513543	978.6219486682322	2297.094654217698	402.6186554690573	926.8495264043539	2266.882666173611	414.6226575859279	969.290373582945	2309.179869949687	767.6921279785013	885.8755605690044	2269.807434726146	712.1501038316443	911.5689970747386	2215.618555534144	825.4463948396802	871.0461907243274	2177.737989499894	772.5276964105512	894.5281687751916	2139.757755414417	1005.332101739771	1164.093796720085	1002602462.464857	-894256602.4356488	-93072311.22448921	1423.714832709415	316.5520996633434	1015.742514860118	1426.29221345956	300.6536807816357	1065.278339927889	1467.586512995146	327.112380856858	1037.396428396986	2119.193523800209	1087.235111476375	1177.520657301867	1528.234582730706	113.7343180684861	1045.444202323713	1462.069414959854	147.4707643670002	1124.363205231107	1988.170366838398	1073.238427153453	1086.612474733005	1529.929059215228	358.5140039776055	1115.081634173733	1528.168885917061	371.0950665961229	1061.6212627936	1569.107939897448	428.6132913266363	1128.690201413669	1569.961485819407	437.8875490769104	1075.781412796482	1838.485573413763	693.1516243975664	1198.552916036114	1798.636653733897	720.2457792813835	1144.357090560026	1886.205896732547	792.092440808615	1210.862762038528	1850.021715678856	816.6837806157131	1157.881379243591	
2253	15.01333333333333	2157.688484092492	1023.711523292161	947.203491413506	2219.107288322965	176.8356575911382	993.2863638312548	2248.36065073858	193.8186196618504	947.2053060102735	2236.319245148379	225.2035616958273	998.0976843711458	2103.921301084858	1101.696225957762	893.5982454470349	2448.987803244497	176.7074747123759	1015.221680505602	2402.099102245737	167.4882668437207	913.6774221485	1994.503940323969	1072.224472861029	983.8461642534546	2303.316422674903	311.4450333105707	939.0610909403183	2269.167726322587	318.1373804345629	977.1336452641948	2308.646557329727	391.019192582803	925.0974883149257	2277.331126930211	401.5032995896401	967.0094977950706	2306.099806431777	763.1908150283479	883.7026263477591	2265.986722669453	708.4108304590234	910.1013905628872	2213.575129093484	822.5719381044246	869.6008530676423	2174.970719309898	770.3895988385552	893.9036530132421	2140.550353160079	1008.098781836319	1164.066323969408	1004495697.070375	-895947222.0026958	-93248909.87024924	1412.772218598748	336.8751618755535	1010.498942534669	1413.077667843667	321.1726416790969	1060.507008972861	1456.571312568345	345.5883522750818	1033.493804918878	2119.905425791891	1090.009463042645	1177.137284274261	1508.484375813894	129.6078010975442	1046.230337593888	1440.850427084831	166.3745501246375	1122.941230063436	1988.882651153453	1075.612493807307	1086.033883403575	1518.985477766365	374.6094898880781	1112.576513097238	1518.978414121022	386.4184849111434	1058.646789839112	1561.178460099127	442.801530102981	1125.841316466446	1563.607371869723	451.2358729687807	1072.679503520621	1836.926864564474	697.7056000500037	1197.607122208777	1798.418678841057	724.2618186005283	1142.167575173271	1884.899445194981	796.5432310223089	1209.416127799561	1849.928828625904	820.6749487467059	1155.297715811414	
2254	15.02	2157.141380409347	1024.050194356939	946.9903412783334	2242.192895288033	160.3801738122645	991.8561652103634	2271.016701508847	178.7624995483003	946.1075813583731	2256.088980059598	209.7250333553555	996.2933572062752	2103.606221074397	1101.791606403227	892.9460459248878	2470.641854786522	175.5494854678038	1017.657579621141	2426.426941838649	162.2288238724371	915.5364084877083	1995.195531116037	1072.997064091911	983.0571099632879	2318.411947482878	299.8928663179031	937.8530896939769	2283.388615338491	304.81656673452	975.2324640298442	2319.378559981923	379.4335679549833	923.1660460037707	2286.80536233088	388.3641510809862	964.3214515682513	2302.212384053887	757.2872885380492	881.4803944807732	2261.321099153527	703.5664952904199	908.991475407003	2210.957521079188	818.5405165563024	868.1335504617495	2171.576328533964	767.3691837808693	893.6100122968768	2141.001390468116	1010.644543713235	1164.183180244998	1006391313.52453	-897639970.9780834	-93425731.75825004	1401.437909397699	357.5990561795728	1007.061776374057	1400.355581715272	342.1632559750986	1057.342240133104	1445.243239629974	364.5776291566617	1030.635971504584	2120.36260491141	1092.70362547335	1176.684493211701	1488.861311342464	146.8582615131409	1046.426111349058	1421.314614762397	186.5414735230694	1121.943441527244	1989.300849485553	1077.670533247463	1085.305068327369	1508.967765402317	390.8673297513819	1110.512666784862	1510.206858238898	402.3086165893895	1056.332847984711	1554.540868605094	456.6909746450182	1123.53069938541	1558.073455963982	464.6832740836009	1070.261383894819	1836.737587073676	700.4538956106411	1196.577253726302	1799.244263546699	726.4448973938642	1140.114545197226	1884.566885153126	799.3677721560855	1208.025551858848	1850.41310923572	823.0501689727253	1153.053140403434	
